<?xml version="1.0" standalone="no"?>
<!DOCTYPE svg PUBLIC "-//W3C//DTD SVG 20010904//EN"
 "http://www.w3.org/TR/2001/REC-SVG-20010904/DTD/svg10.dtd">
<svg version="1.0" xmlns="http://www.w3.org/2000/svg"
 width="500.000000pt" height="500.000000pt" viewBox="0 0 500.000000 500.000000"
 preserveAspectRatio="xMidYMid meet">

<g transform="translate(0.000000,500.000000) scale(0.100000,-0.100000)"
fill="#000000" stroke="none">
<path d="M1198 3714 l-68 -34 0 -465 0 -465 -37 -24 c-21 -13 -41 -22 -45 -19
-5 2 -8 173 -8 379 l0 374 -70 -35 -70 -35 0 -418 0 -418 -39 -38 c-25 -25
-41 -34 -46 -26 -4 6 -5 163 -2 348 2 185 2 342 0 349 -3 8 -30 -5 -75 -35
l-70 -47 6 -275 c3 -151 6 -381 6 -510 l0 -235 51 79 c96 150 224 290 364 397
97 74 265 184 333 218 94 48 259 100 362 115 50 7 94 16 97 20 4 3 -30 6 -75
6 l-82 0 0 88 0 87 -62 35 c-35 19 -66 36 -70 38 -4 2 -9 -56 -10 -129 l-3
-133 -35 -7 c-19 -4 -38 -5 -42 -3 -5 3 -8 110 -8 239 l0 234 -67 40 -68 41
-3 -301 -2 -300 -35 -15 c-19 -8 -39 -14 -45 -14 -6 0 -11 156 -12 464 l-3
464 -67 -34z"/>
<path d="M1328 2609 c-30 -11 -43 -38 -33 -69 4 -14 25 -25 68 -38 64 -19 81
-38 57 -67 -16 -19 -84 -19 -104 0 -18 19 -37 20 -30 1 13 -34 103 -48 142
-20 24 17 30 65 10 82 -7 5 -35 16 -62 23 -59 17 -80 43 -52 65 26 18 71 18
90 -1 19 -19 37 -19 30 -1 -5 14 -56 37 -78 35 -6 0 -23 -5 -38 -10z"/>
<path d="M3373 2613 c-30 -6 -45 -27 -41 -60 3 -25 10 -30 65 -48 66 -20 86
-43 63 -70 -16 -20 -80 -19 -108 1 -28 19 -42 10 -20 -12 9 -9 37 -19 62 -21
59 -7 96 15 96 57 0 32 -16 44 -83 64 -22 6 -45 19 -50 28 -26 40 56 67 95 31
21 -19 38 -9 17 11 -16 16 -64 25 -96 19z"/>
<path d="M1516 2518 c-21 -51 -40 -99 -43 -105 -3 -7 0 -13 6 -13 7 0 19 16
27 36 14 34 16 35 67 32 48 -3 52 -5 61 -35 5 -18 15 -33 22 -33 11 0 9 12 -7
53 -12 28 -30 76 -41 105 -31 77 -47 70 -92 -40z m74 26 c11 -25 20 -50 20
-55 0 -5 -18 -9 -40 -9 -22 0 -40 3 -40 6 0 10 34 104 38 104 1 0 12 -21 22
-46z"/>
<path d="M1700 2506 c0 -64 4 -106 10 -106 6 0 10 38 11 93 l0 92 36 -92 c20
-51 39 -93 44 -93 4 0 22 39 41 88 l33 87 3 -87 c4 -125 22 -110 22 18 0 92
-2 105 -16 102 -11 -2 -29 -35 -50 -88 -32 -85 -32 -85 -44 -55 -39 103 -58
140 -73 143 -15 3 -17 -8 -17 -102z"/>
<path d="M2011 2592 c-6 -10 -19 -41 -30 -68 -11 -27 -27 -66 -35 -86 -14 -32
-14 -38 -2 -38 8 0 20 16 26 35 11 34 13 35 61 35 48 0 51 -2 65 -35 8 -19 19
-35 25 -35 12 0 9 11 -35 121 -35 85 -56 106 -75 71z m55 -86 c6 -25 5 -26
-36 -26 -46 0 -46 0 -12 79 l15 36 13 -31 c7 -17 16 -43 20 -58z"/>
<path d="M2240 2505 c0 -63 4 -105 10 -105 6 0 10 20 10 45 l0 45 39 0 c36 0
42 -4 68 -45 15 -25 34 -45 41 -45 8 0 3 14 -13 40 -30 48 -30 52 -5 68 24 15
27 64 4 86 -11 12 -35 16 -85 16 l-69 0 0 -105z m128 79 c48 -33 17 -74 -57
-74 -38 0 -40 2 -47 34 -3 19 -3 39 1 45 10 16 77 13 103 -5z"/>
<path d="M2460 2505 l0 -105 85 0 c50 0 85 4 85 10 0 6 -30 10 -70 10 l-70 0
0 40 0 40 60 0 c33 0 60 4 60 10 0 6 -27 10 -60 10 l-60 0 0 38 0 39 60 0 c33
0 63 3 67 6 3 4 -30 7 -75 7 l-82 0 0 -105z"/>
<path d="M2716 2578 c-42 -102 -66 -162 -66 -170 0 -19 18 -5 33 27 15 32 20
35 62 35 42 0 47 -3 62 -35 15 -32 33 -47 33 -27 0 5 -17 51 -38 103 -43 105
-64 122 -86 67z m64 -80 c0 -14 -8 -18 -35 -18 -41 0 -43 9 -18 72 l17 42 18
-39 c9 -22 18 -48 18 -57z"/>
<path d="M2870 2505 l0 -105 65 0 c78 0 88 18 13 22 l-53 3 -3 93 c-4 128 -22
117 -22 -13z"/>
<path d="M3120 2505 l0 -105 85 0 c50 0 85 4 85 10 0 6 -30 10 -70 10 l-70 0
0 40 0 40 60 0 c33 0 60 4 60 10 0 6 -27 10 -60 10 l-60 0 0 38 0 37 62 3 c91
5 85 12 -10 12 l-82 0 0 -105z"/>
<path d="M3514 2603 c3 -4 21 -7 39 -7 l32 -1 3 -97 c4 -126 22 -129 22 -4 l0
94 38 10 c33 9 27 10 -52 11 -49 1 -86 -2 -82 -6z"/>
<path d="M3766 2578 c-42 -102 -66 -162 -66 -170 0 -19 18 -5 33 27 15 32 20
35 62 35 42 0 47 -3 62 -35 15 -32 33 -47 33 -27 0 5 -17 51 -38 103 -43 105
-64 122 -86 67z m67 -90 c-2 -5 -20 -8 -39 -8 -40 0 -42 10 -17 72 l17 42 22
-49 c12 -28 20 -53 17 -57z"/>
<path d="M3940 2601 l35 -6 3 -97 c1 -54 7 -98 12 -98 5 0 11 44 12 98 l3 97
32 0 c17 0 35 3 39 8 4 4 -33 6 -82 6 -57 -1 -77 -4 -54 -8z"/>
<path d="M4110 2505 l0 -105 80 0 c47 0 80 4 80 10 0 6 -30 10 -70 10 l-70 0
0 40 0 40 65 0 c37 0 65 4 65 10 0 6 -29 10 -66 10 l-65 0 3 38 3 37 55 3 c90
5 91 10 3 11 l-83 1 0 -105z"/>
<path d="M2702 2190 c0 -14 2 -19 5 -12 2 6 2 18 0 25 -3 6 -5 1 -5 -13z"/>
</g>
</svg>
